# xmcd CD database file
#
# Track frame offsets:
#	150
#	21670
#	44047
#	53276
#	75435
#	102643
#	124064
#	149573
#	171669
#	194665
#	207161
#	225956
#	246064
#
# Disc length: 3600 seconds
#
# Revision: 0
# Processed by: cddbd v1.5PL3 Copyright (c) Steve Scherf et al.
# Submitted via: CDex 1.50beta8
#
DISCID=bc0e0e0d
DTITLE=広瀬香美 - Music D.
DYEAR=1900
DGENRE=Pop
TTITLE0=Love Communication
TTITLE1=恋のベスト10
TTITLE2=リバース
TTITLE3=I.C.E.
TTITLE4=ストロボ
TTITLE5=School Days
TTITLE6=Rest of Your Heart
TTITLE7=NIGHTMARE
TTITLE8=ムーンロケット
TTITLE9=パリパラ
TTITLE10=BEGIN
TTITLE11=I Wish
TTITLE12=dance with me
EXTD=
EXTT0=
EXTT1=
EXTT2=
EXTT3=
EXTT4=
EXTT5=
EXTT6=
EXTT7=
EXTT8=
EXTT9=
EXTT10=
EXTT11=
EXTT12=
PLAYORDER=
